<svg fill="none" height="40" viewBox="0 0 49 40" width="49" xmlns="http://www.w3.org/2000/svg"><path clip-rule="evenodd" d="m10.5497 0h27.901c.6658 0 1.2808.356142 1.6128.933924l8.1287 14.145876c.4215.7336.2963 1.6595-.305 2.2544l-22.3745 22.1366c-.7248.7171-1.8907.7171-2.6155 0l-22.344278-22.1067c-.6152506-.6087-.73046-1.5616-.278034-2.2998l8.688952-14.175762c.3384-.552079.93889-.888538 1.58586-.888538zm24.2985 6.31565v3.96915h-7.9479v2.7519c5.5821.2941 9.7701 1.5019 9.8012 2.9496l-.0002 3.0181c-.0311 1.4477-4.2189 2.6555-9.801 2.9496v6.7535h-5.2775v-6.7535c-5.5821-.2941-9.7701-1.5019-9.8011-2.9496l.0001-3.0181c.0311-1.4477 4.2189-2.6555 9.801-2.9496v-2.7519h-7.9479v-3.96915zm-10.5866 13.56495c5.957 0 10.9361-1.0213 12.1546-2.3852-1.0333-1.1566-4.7709-2.0669-9.5159-2.3169v2.8813c-.8504.0448-1.7333.0684-2.6387.0684-.9055 0-1.7883-.0236-2.6388-.0684v-2.8813c-4.745.25-8.4826 1.1603-9.5159 2.3169 1.2185 1.3639 6.1976 2.3852 12.1547 2.3852z" fill="#009393" fill-rule="evenodd"/></svg>